<svg width="517" height="777" viewBox="0 0 517 777" fill="none" xmlns="http://www.w3.org/2000/svg">
<path d="M517 106.083C517 70.4355 517 52.6115 509.514 41.1489C502.965 31.1211 492.763 24.043 481.077 21.4194C467.719 18.4203 451.023 24.6609 417.631 37.1419L47.8311 175.365C30.5879 181.81 21.9662 185.033 15.6121 190.624C9.99881 195.564 5.67422 201.797 3.01276 208.784C0 216.694 0 225.898 0 244.307V622.815C0 644.718 0 655.669 3.96185 664.587C7.45465 672.449 13.0822 679.174 20.2054 683.998C28.285 689.47 39.0648 691.401 60.6245 695.262L430.425 761.494C460.17 766.822 475.043 769.485 486.651 765.285C496.837 761.599 505.395 754.438 510.819 745.061C517 734.375 517 719.266 517 689.047V106.083Z" fill="#0040E6" fill-opacity="0.07"/>
<path d="M517 131.062C517 95.4206 517 77.5997 509.515 66.1379C502.967 56.1107 492.767 49.0325 481.083 46.4075C467.726 43.4071 451.032 49.6434 417.644 62.1161L76.844 189.428C59.5963 195.871 50.9724 199.092 44.6165 204.684C39.0018 209.623 34.6759 215.857 32.0137 222.845C29 230.756 29 239.962 29 258.374V609.052C29 630.957 29 641.909 32.9624 650.828C36.4557 658.69 42.084 665.416 49.208 670.24C57.2886 675.711 68.0696 677.641 89.6317 681.501L430.432 742.504C460.175 747.828 475.046 750.49 486.654 746.289C496.839 742.603 505.396 735.442 510.819 726.066C517 715.38 517 700.272 517 670.056V131.062Z" fill="#0040E6" fill-opacity="0.07"/>
<path d="M511 166.067C511 130.424 511 112.602 503.515 101.14C496.967 91.1128 486.766 84.0346 475.081 81.41C461.725 78.4098 445.03 84.647 411.641 97.1213L108.841 210.25C91.5946 216.694 82.9712 219.916 76.6156 225.507C71.0012 230.447 66.6755 236.68 64.0135 243.668C61 251.579 61 260.784 61 279.196V593.846C61 615.751 61 626.703 64.9622 635.621C68.4554 643.483 74.0836 650.209 81.2074 655.033C89.2878 660.505 100.069 662.435 121.63 666.294L424.43 720.502C454.174 725.827 469.046 728.489 480.654 724.288C490.839 720.602 499.396 713.441 504.819 704.065C511 693.379 511 678.27 511 648.054V166.067Z" fill="#0040E6"/>
</svg>
