<?xml version="1.0" standalone="no"?>
<!DOCTYPE svg PUBLIC "-//W3C//DTD SVG 20010904//EN"
 "http://www.w3.org/TR/2001/REC-SVG-20010904/DTD/svg10.dtd">
<svg version="1.0" xmlns="http://www.w3.org/2000/svg"
 width="71.000000pt" height="71.000000pt" viewBox="0 0 71.000000 71.000000"
 preserveAspectRatio="xMidYMid meet">
<metadata>
Created by potrace 1.14, written by Peter Selinger 2001-2017
</metadata>
<g transform="translate(0.000000,71.000000) scale(0.100000,-0.100000)"
fill="#000000" stroke="none">
<path d="M354 603 c-26 -3 -31 -8 -31 -31 0 -15 -7 -54 -16 -87 -9 -32 -17
-84 -17 -115 0 -64 -6 -75 -44 -90 l-29 -11 20 -22 c27 -29 43 -61 43 -84 0
-11 -9 -4 -23 21 -32 56 -67 79 -132 84 -46 4 -55 2 -55 -12 0 -9 -7 -19 -15
-22 -7 -3 -21 -25 -31 -49 -31 -82 19 -155 106 -155 34 0 48 6 76 34 19 19 34
43 34 55 0 19 6 21 50 21 40 0 54 -5 77 -27 15 -16 28 -31 28 -35 0 -15 41
-37 68 -38 15 0 27 -4 27 -10 0 -17 43 -11 74 9 16 11 34 17 41 15 14 -6 55
41 55 61 0 7 7 15 15 19 12 4 15 22 12 90 -2 79 -5 88 -32 117 -43 44 -77 59
-135 59 -63 0 -116 -26 -159 -77 -33 -39 -34 -36 -14 29 5 17 3 20 -10 15 -14
-5 -17 0 -16 36 0 23 8 71 17 107 l17 65 48 9 c26 4 62 5 81 2 33 -6 33 -7 40
-76 4 -39 12 -70 17 -70 10 0 3 144 -8 163 -4 7 -121 7 -179 0z m231 -335 c44
-52 24 -127 -40 -148 -63 -21 -125 20 -125 83 0 94 106 136 165 65z m-415 -78
c42 -42 14 -110 -46 -110 -60 0 -83 62 -39 105 29 30 58 32 85 5z"/>
<path d="M510 243 c0 -7 -6 -12 -12 -10 -7 1 -12 -5 -10 -13 2 -8 4 -22 5 -31
1 -17 20 -15 44 3 13 10 12 32 -1 35 -5 1 -13 7 -17 15 -7 10 -9 10 -9 1z"/>
<path d="M104 156 c-8 -21 3 -36 27 -36 15 0 20 6 17 22 -4 27 -35 37 -44 14z"/>
<path d="M237 569 c7 -8 14 -42 16 -74 4 -57 4 -57 3 9 -1 52 -5 71 -16 74
-12 4 -13 2 -3 -9z"/>
<path d="M203 398 c-72 -10 -113 -23 -113 -38 0 -13 27 -13 109 2 72 12 84 18
73 33 -5 7 -29 8 -69 3z"/>
</g>
</svg>
