<svg width="40" height="40" viewBox="0 0 40 40" fill="none" xmlns="http://www.w3.org/2000/svg">
<path d="M20 28.3333L21.6667 24.9999V16.4299C24.535 15.6849 26.6667 13.0966 26.6667 9.99992C26.6667 6.32325 23.6767 3.33325 20 3.33325C16.3234 3.33325 13.3334 6.32325 13.3334 9.99992C13.3334 13.0966 15.465 15.6849 18.3334 16.4299V24.9999L20 28.3333ZM16.6667 9.99992C16.6667 8.16159 18.1617 6.66659 20 6.66659C21.8384 6.66659 23.3334 8.16159 23.3334 9.99992C23.3334 11.8383 21.8384 13.3333 20 13.3333C18.1617 13.3333 16.6667 11.8383 16.6667 9.99992Z" fill="white"/>
<path d="M27.1117 17.6049L26.2234 20.8183C30.5417 22.0116 33.3334 24.3066 33.3334 26.6666C33.3334 29.8199 27.8584 33.3333 20 33.3333C12.1417 33.3333 6.66671 29.8199 6.66671 26.6666C6.66671 24.3066 9.45837 22.0116 13.7784 20.8166L12.89 17.6033C6.99504 19.2333 3.33337 22.7049 3.33337 26.6666C3.33337 32.2733 10.655 36.6666 20 36.6666C29.345 36.6666 36.6667 32.2733 36.6667 26.6666C36.6667 22.7049 33.005 19.2333 27.1117 17.6049Z" fill="white"/>
</svg>
