<svg width="16" height="15" viewBox="0 0 16 15" fill="none" xmlns="http://www.w3.org/2000/svg">
<path d="M11.3012 14.8393C13.6116 14.8393 15.4845 13.0444 15.4845 10.8304C15.4845 8.61629 13.6116 6.82143 11.3012 6.82143C8.99091 6.82143 7.11801 8.61629 7.11801 10.8304C7.11801 13.0444 8.99091 14.8393 11.3012 14.8393Z" fill="#97CF26"/>
<path d="M3.43788 12.6964C4.51329 12.6964 5.38509 11.861 5.38509 10.8304C5.38509 9.79975 4.51329 8.96428 3.43788 8.96428C2.36247 8.96428 1.49068 9.79975 1.49068 10.8304C1.49068 11.861 2.36247 12.6964 3.43788 12.6964Z" fill="#A169F7"/>
<path d="M11.3013 5.87499C12.7883 5.87499 13.9938 4.71973 13.9938 3.29464C13.9938 1.86954 12.7883 0.714279 11.3013 0.714279C9.8142 0.714279 8.6087 1.86954 8.6087 3.29464C8.6087 4.71973 9.8142 5.87499 11.3013 5.87499Z" fill="#FF6163"/>
<path d="M3.43789 6.58929C5.33658 6.58929 6.87578 5.11422 6.87578 3.29464C6.87578 1.47506 5.33658 0 3.43789 0C1.5392 0 0 1.47506 0 3.29464C0 5.11422 1.5392 6.58929 3.43789 6.58929Z" fill="#00AAFF"/>
</svg>
