<svg width="54" height="55" viewBox="0 0 54 55" fill="none" xmlns="http://www.w3.org/2000/svg">
<path d="M48.2117 6.30117C47.0867 5.15142 45.4217 4.72617 43.8692 5.17617L7.6667 15.6364C6.0287 16.0909 4.8677 17.3892 4.55495 19.0362C4.23545 20.7147 5.35145 22.8477 6.80945 23.7387L18.1292 30.6507C19.2902 31.3617 20.7887 31.1839 21.7494 30.2209L34.7117 17.2587C35.3642 16.5814 36.4442 16.5814 37.0967 17.2587C37.7492 17.9089 37.7492 18.9687 37.0967 19.6437L24.1119 32.6059C23.1489 33.5689 22.9689 35.0629 23.6777 36.2262L30.5942 47.5887C31.4042 48.9364 32.7992 49.7037 34.3292 49.7037C34.5092 49.7037 34.7117 49.7037 34.8917 49.6789C36.6467 49.4562 38.0417 48.2614 38.5592 46.5739L49.2917 10.6437C49.7642 9.11367 49.3367 7.44867 48.2117 6.30117Z" fill="white"/>
<path opacity="0.4" d="M21.2657 43.57C21.9227 44.2292 21.9227 45.298 21.2657 45.9572L18.1922 49.0285C17.8637 49.3592 17.4317 49.5235 16.9997 49.5235C16.5677 49.5235 16.1357 49.3592 15.8072 49.0285C15.1479 48.3692 15.1479 47.3027 15.8072 46.6435L18.8784 43.57C19.5377 42.913 20.6064 42.913 21.2657 43.57ZM19.5024 35.047C20.1594 35.7062 20.1594 36.775 19.5024 37.4342L16.4289 40.5055C16.1004 40.8362 15.6684 41.0005 15.2364 41.0005C14.8044 41.0005 14.3724 40.8362 14.0439 40.5055C13.3846 39.8462 13.3846 38.7797 14.0439 38.1205L17.1151 35.047C17.7744 34.39 18.8431 34.39 19.5024 35.047ZM11.0397 32.3641C11.6967 33.0233 11.6967 34.0921 11.0397 34.7513L7.96617 37.8226C7.63767 38.1533 7.20567 38.3176 6.77367 38.3176C6.34167 38.3176 5.90967 38.1533 5.58117 37.8226C4.92192 37.1633 4.92192 36.0968 5.58117 35.4376L8.65242 32.3641C9.31167 31.7071 10.3804 31.7071 11.0397 32.3641Z" fill="white"/>
</svg>
