<svg width="54" height="54" viewBox="0 0 54 54" fill="none" xmlns="http://www.w3.org/2000/svg">
<path d="M27.0269 33.3678C23.4169 33.3678 20.4966 30.5553 20.4966 27.0228C20.4966 23.4903 23.4169 20.6553 27.0269 20.6553C30.637 20.6553 33.4883 23.4903 33.4883 27.0228C33.4883 30.5553 30.637 33.3678 27.0269 33.3678Z" fill="white"/>
<path opacity="0.4" d="M47.7676 32.3327C47.3307 31.6577 46.7098 30.9827 45.905 30.5552C45.2612 30.2402 44.8473 29.7227 44.4794 29.1152C43.3067 27.1802 43.9965 24.6377 45.951 23.4902C48.2504 22.2077 48.9863 19.3502 47.6526 17.1227L46.112 14.4677C44.8013 12.2402 41.9271 11.4527 39.6507 12.7577C37.6272 13.8377 35.0289 13.1177 33.8562 11.2052C33.4883 10.5752 33.2813 9.90024 33.3273 9.22524C33.3963 8.34774 33.1204 7.51524 32.7065 6.84024C31.8557 5.44524 30.3151 4.50024 28.6135 4.50024H25.3714C23.6928 4.54524 22.1522 5.44524 21.3014 6.84024C20.8645 7.51524 20.6116 8.34774 20.6576 9.22524C20.7036 9.90024 20.4966 10.5752 20.1287 11.2052C18.956 13.1177 16.3577 13.8377 14.3572 12.7577C12.0578 11.4527 9.20656 12.2402 7.8729 14.4677L6.3323 17.1227C5.02164 19.3502 5.75745 22.2077 8.03386 23.4902C9.98836 24.6377 10.6782 27.1802 9.52848 29.1152C9.13758 29.7227 8.72368 30.2402 8.07985 30.5552C7.29805 30.9827 6.60823 31.6577 6.24033 32.3327C5.38955 33.7277 5.43554 35.4827 6.28632 36.9452L7.8729 39.6452C8.72368 41.0852 10.3103 41.9852 11.9658 41.9852C12.7476 41.9852 13.6674 41.7602 14.4032 41.3102C14.9781 40.9277 15.6679 40.7927 16.4267 40.7927C18.7031 40.7927 20.6116 42.6602 20.6576 44.8877C20.6576 47.4752 22.773 49.5002 25.4404 49.5002H28.5675C31.2119 49.5002 33.3273 47.4752 33.3273 44.8877C33.3963 42.6602 35.3048 40.7927 37.5812 40.7927C38.317 40.7927 39.0068 40.9277 39.6047 41.3102C40.3405 41.7602 41.2373 41.9852 42.042 41.9852C43.6746 41.9852 45.2612 41.0852 46.112 39.6452L47.7216 36.9452C48.5494 35.4377 48.6183 33.7277 47.7676 32.3327Z" fill="white"/>
</svg>
