<svg width="16" height="16" viewBox="0 0 16 16" fill="none" xmlns="http://www.w3.org/2000/svg">
<rect x="0.484474" y="0.5" width="15" height="15" rx="4" fill="#A00090"/>
<path d="M7.98447 6.04736C6.90928 6.04736 6.03184 6.9248 6.03184 7.99999C6.03184 9.07519 6.90928 9.95263 7.98447 9.95263C9.05967 9.95263 9.93711 9.07519 9.93711 7.99999C9.93711 6.9248 9.05967 6.04736 7.98447 6.04736ZM13.8409 7.99999C13.8409 7.1914 13.8482 6.39013 13.8028 5.583C13.7574 4.6455 13.5436 3.81347 12.858 3.12792C12.171 2.44091 11.3404 2.22851 10.4029 2.1831C9.59434 2.13769 8.79307 2.14501 7.98594 2.14501C7.17735 2.14501 6.37608 2.13769 5.56895 2.1831C4.63145 2.22851 3.79942 2.44238 3.11387 3.12792C2.42686 3.81493 2.21446 4.6455 2.16905 5.583C2.12364 6.39159 2.13096 7.19286 2.13096 7.99999C2.13096 8.80712 2.12364 9.60986 2.16905 10.417C2.21446 11.3545 2.42832 12.1865 3.11387 12.8721C3.80088 13.5591 4.63145 13.7715 5.56895 13.8169C6.37754 13.8623 7.17881 13.855 7.98594 13.855C8.79453 13.855 9.5958 13.8623 10.4029 13.8169C11.3404 13.7715 12.1725 13.5576 12.858 12.8721C13.545 12.1851 13.7574 11.3545 13.8028 10.417C13.8497 9.60986 13.8409 8.80859 13.8409 7.99999ZM7.98447 11.0044C6.32188 11.0044 4.98008 9.66259 4.98008 7.99999C4.98008 6.3374 6.32188 4.9956 7.98447 4.9956C9.64707 4.9956 10.9889 6.3374 10.9889 7.99999C10.9889 9.66259 9.64707 11.0044 7.98447 11.0044ZM11.1119 5.57421C10.7237 5.57421 10.4103 5.26074 10.4103 4.87255C10.4103 4.48437 10.7237 4.17089 11.1119 4.17089C11.5001 4.17089 11.8136 4.48437 11.8136 4.87255C11.8137 4.96473 11.7956 5.05602 11.7604 5.1412C11.7252 5.22638 11.6735 5.30378 11.6083 5.36896C11.5431 5.43414 11.4657 5.48582 11.3806 5.52104C11.2954 5.55626 11.2041 5.57433 11.1119 5.57421Z" fill="white"/>
</svg>
