<svg width="54" height="54" viewBox="0 0 54 54" fill="none" xmlns="http://www.w3.org/2000/svg">
<path opacity="0.4" d="M26.998 49.496C25.2677 49.496 23.5397 48.839 22.219 47.5272L20.5765 45.8847C19.9397 45.2502 19.087 44.8992 18.1825 44.897H15.8717C12.1367 44.897 9.09697 41.8572 9.09697 38.1222V35.8092C9.09472 34.907 8.74372 34.0542 8.10697 33.413L6.49147 31.7997C3.84547 29.1695 3.83422 24.8697 6.46672 22.2215L8.10922 20.5767C8.74372 19.94 9.09472 19.0872 9.09697 18.1827V15.8742C9.09697 12.137 12.1367 9.09721 15.8717 9.09721H18.1847C19.087 9.09721 19.9375 8.74621 20.5787 8.10496L22.1965 6.49171C24.8267 3.84571 29.1242 3.83221 31.7747 6.46696L33.4172 8.10946C34.0562 8.74621 34.9067 9.09721 35.809 9.09721H38.122C41.857 9.09721 44.8967 12.137 44.8967 15.8742V18.185C44.899 19.0872 45.25 19.94 45.8867 20.5812L47.5022 22.1967C48.7825 23.4702 49.4912 25.1667 49.498 26.978C49.5025 28.778 48.8095 30.4722 47.5472 31.7525C47.5247 31.775 47.5045 31.7997 47.482 31.82L45.8845 33.4175C45.25 34.0542 44.899 34.907 44.8967 35.8115V38.1222C44.8967 41.8572 41.857 44.897 38.122 44.897H35.809C34.9067 44.8992 34.054 45.2502 33.415 45.887L31.7972 47.5025C30.4787 48.83 28.7372 49.496 26.998 49.496Z" fill="white"/>
<path d="M31.369 31.4053C31.945 30.8293 32.809 30.6628 33.538 30.9688C33.7518 31.0408 33.9903 31.1938 34.1883 31.3895C34.5483 31.7495 34.744 32.2423 34.744 32.7823C34.744 33.32 34.5483 33.815 34.1905 34.1728C33.7878 34.5485 33.2973 34.751 32.7978 34.751C32.2713 34.751 31.7988 34.5598 31.3915 34.1818C31.2138 34.004 31.0788 33.7993 30.9663 33.5473C30.8448 33.2728 30.829 32.9803 30.829 32.7823C30.829 32.5843 30.8448 32.2895 30.9663 32.015C31.081 31.7608 31.2498 31.5448 31.369 31.4053ZM31.3954 19.8221C32.1626 19.0571 33.4114 19.0571 34.1786 19.8221C34.9459 20.5916 34.9459 21.8381 34.1786 22.6076L22.6136 34.1726C22.2424 34.5438 21.7496 34.7486 21.2231 34.7486C20.6966 34.7486 20.2039 34.5438 19.8304 34.1726C19.0631 33.4031 19.0631 32.1543 19.8304 31.3871L31.3954 19.8221ZM20.4903 19.397C21.1698 19.0865 22.072 19.2688 22.6075 19.8313C22.7988 20.0225 22.945 20.2318 23.0418 20.45C23.1475 20.684 23.2015 20.9495 23.2015 21.2173C23.2015 21.7528 22.9878 22.25 22.5963 22.6145C22.225 22.9858 21.7435 23.186 21.2103 23.186C20.7108 23.186 20.2203 22.9813 19.8265 22.6123C19.453 22.241 19.2415 21.7325 19.2415 21.2173C19.2415 20.7268 19.4485 20.2228 19.813 19.8335C20.0133 19.631 20.2518 19.478 20.4903 19.397Z" fill="white"/>
</svg>
