<svg width="49" height="49" viewBox="0 0 49 49" fill="none" xmlns="http://www.w3.org/2000/svg">
<path d="M25.6415 4.69913L38.9164 9.15303C40.4023 9.64922 41.407 11.0142 41.4151 12.544L41.4997 25.8253C41.5258 29.8516 40.058 33.7564 37.37 36.8159C36.1337 38.2201 34.5491 39.4263 32.5256 40.5049L25.3898 44.3195C25.1663 44.4371 24.9207 44.4979 24.673 44.5C24.4254 44.5019 24.1777 44.443 23.9562 44.3273L16.754 40.601C14.7083 39.54 13.1096 38.3515 11.8613 36.9669C9.129 33.9388 7.61084 30.0517 7.58466 26.0194L7.50005 12.7479C7.49204 11.2162 8.47865 9.84142 9.95654 9.32562L23.181 4.71286C23.9663 4.43437 24.8422 4.42848 25.6415 4.69913ZM31.9896 18.9373C31.3956 18.3666 30.4392 18.3705 29.8533 18.9491L23.1162 25.5897L20.3578 22.9382C19.7638 22.3675 18.8094 22.3734 18.2215 22.9519C17.6355 23.5305 17.6416 24.4601 18.2355 25.0308L22.0672 28.7179C22.3652 29.0042 22.7518 29.1454 23.1384 29.1416C23.525 29.1395 23.9095 28.9944 24.2035 28.7041L32.0017 21.0162C32.5876 20.4376 32.5816 19.508 31.9896 18.9373Z" fill="#97CF26"/>
</svg>
