<svg width="16" height="16" viewBox="0 0 16 16" fill="none" xmlns="http://www.w3.org/2000/svg">
<path d="M7.98447 0.5C5.99579 0.5 4.08681 1.29066 2.68173 2.69668C1.2752 4.10325 0.484856 6.01084 0.484467 8C0.484467 9.98832 1.27548 11.8973 2.68173 13.3033C4.08681 14.7093 5.99579 15.5 7.98447 15.5C9.97314 15.5 11.8821 14.7093 13.2872 13.3033C14.6935 11.8973 15.4845 9.98832 15.4845 8C15.4845 6.01168 14.6935 4.1027 13.2872 2.69668C11.8821 1.29066 9.97314 0.5 7.98447 0.5Z" fill="url(#paint0_linear_16_401)"/>
<path d="M3.87939 7.92078C6.06611 6.96828 7.52392 6.34027 8.25283 6.03687C10.3364 5.1705 10.7688 5.02003 11.0513 5.01494C11.1134 5.01394 11.2517 5.02929 11.3419 5.10224C11.4169 5.16376 11.438 5.24697 11.4485 5.30539C11.4579 5.36375 11.4708 5.49675 11.4603 5.60058C11.3478 6.78652 10.8591 9.66441 10.6106 10.9927C10.5063 11.5548 10.2989 11.7432 10.0985 11.7616C9.66259 11.8017 9.33213 11.4738 8.91025 11.1973C8.25049 10.7646 7.87783 10.4953 7.23681 10.073C6.49619 9.58507 6.97666 9.31683 7.39853 8.87855C7.50869 8.76382 9.42822 7.01832 9.46455 6.86C9.46924 6.84019 9.47392 6.76636 9.42939 6.72746C9.38603 6.68843 9.32158 6.70179 9.2747 6.71234C9.20791 6.72734 8.15439 7.42437 6.11064 8.80332C5.81181 9.00886 5.54111 9.10906 5.29736 9.10378C5.03017 9.09804 4.51455 8.95238 4.13135 8.82793C3.6626 8.67523 3.28877 8.59449 3.32158 8.33515C3.33799 8.20015 3.52431 8.06199 3.87939 7.92078Z" fill="white"/>
<defs>
<linearGradient id="paint0_linear_16_401" x1="7.98447" y1="0.5" x2="7.98447" y2="15.5" gradientUnits="userSpaceOnUse">
<stop stop-color="#2AABEE"/>
<stop offset="1" stop-color="#229ED9"/>
</linearGradient>
</defs>
</svg>
