<svg width="40" height="40" viewBox="0 0 40 40" fill="none" xmlns="http://www.w3.org/2000/svg">
<g clip-path="url(#clip0_551_52)">
<path fill-rule="evenodd" clip-rule="evenodd" d="M0 9.375C0 8.87772 0.197544 8.40081 0.549175 8.04917C0.900805 7.69754 1.37772 7.5 1.875 7.5H38.125C38.6223 7.5 39.0992 7.69754 39.4508 8.04917C39.8025 8.40081 40 8.87772 40 9.375C40 9.87228 39.8025 10.3492 39.4508 10.7008C39.0992 11.0525 38.6223 11.25 38.125 11.25H1.875C1.37772 11.25 0.900805 11.0525 0.549175 10.7008C0.197544 10.3492 0 9.87228 0 9.375H0ZM0 20C0 19.5027 0.197544 19.0258 0.549175 18.6742C0.900805 18.3225 1.37772 18.125 1.875 18.125H38.125C38.6223 18.125 39.0992 18.3225 39.4508 18.6742C39.8025 19.0258 40 19.5027 40 20C40 20.4973 39.8025 20.9742 39.4508 21.3258C39.0992 21.6775 38.6223 21.875 38.125 21.875H1.875C1.37772 21.875 0.900805 21.6775 0.549175 21.3258C0.197544 20.9742 0 20.4973 0 20H0ZM1.875 28.75C1.37772 28.75 0.900805 28.9475 0.549175 29.2992C0.197544 29.6508 0 30.1277 0 30.625C0 31.1223 0.197544 31.5992 0.549175 31.9508C0.900805 32.3025 1.37772 32.5 1.875 32.5H38.125C38.6223 32.5 39.0992 32.3025 39.4508 31.9508C39.8025 31.5992 40 31.1223 40 30.625C40 30.1277 39.8025 29.6508 39.4508 29.2992C39.0992 28.9475 38.6223 28.75 38.125 28.75H1.875Z" fill="white"/>
</g>
<defs>
<clipPath id="clip0_551_52">
<rect width="40" height="40" fill="white"/>
</clipPath>
</defs>
</svg>
