<svg width="54" height="55" viewBox="0 0 54 55" fill="none" xmlns="http://www.w3.org/2000/svg">
<path d="M36.1136 41.2025C35.0911 41.18 34.2687 40.325 34.2687 39.29C34.2464 38.255 35.0689 37.4022 36.0914 37.3797H36.1136C37.1583 37.3797 38.003 38.2347 38.003 39.29C38.003 40.3475 37.1583 41.2025 36.1136 41.2025ZM27.0445 32.9225C26.022 32.9697 25.1773 32.1575 25.1328 31.1247C25.1328 30.0897 25.933 29.2347 26.9555 29.1875C27.9558 29.1875 28.7783 29.9772 28.8005 30.9875C28.8449 32.0247 28.0447 32.8797 27.0445 32.9225ZM27.0445 41.09C26.022 41.1372 25.1773 40.325 25.1328 39.29C25.1328 38.255 25.933 37.4022 26.9555 37.355C27.9558 37.355 28.7783 38.1447 28.8005 39.1572C28.8449 40.1922 28.0447 41.0472 27.0445 41.09ZM17.9086 32.9225C16.8861 32.9697 16.0414 32.1575 15.997 31.1247C15.997 30.0897 16.7972 29.2347 17.8197 29.1875C18.82 29.1875 19.6424 29.9772 19.6647 30.9875C19.7091 32.0247 18.9089 32.8797 17.9086 32.9225ZM17.8864 41.09C16.8639 41.1372 16.0192 40.325 15.9748 39.29C15.9748 38.255 16.775 37.4022 17.7975 37.355C18.7977 37.355 19.6202 38.1447 19.6424 39.1572C19.6869 40.1922 18.8867 41.0472 17.8864 41.09ZM34.2909 31.1022C34.2909 30.0672 35.0911 29.2347 36.1136 29.2122C37.1139 29.2122 37.9141 30.02 37.9586 31.0122C37.9808 32.0472 37.1806 32.9022 36.1803 32.9225C35.1578 32.945 34.3131 32.1575 34.2909 31.1247V31.1022ZM6.75 21.3282V38.4575C6.75 45.5675 11.2401 50 18.2865 50H35.6913C42.8043 50 47.25 45.6575 47.25 38.5947V21.3282H6.75Z" fill="white"/>
<path opacity="0.4" d="M6.75755 21.328C6.78645 20.0073 6.89759 17.386 7.10654 16.5423C8.1735 11.797 11.7967 8.78204 16.9759 8.35229H37.0259C42.1606 8.80454 45.8283 11.8398 46.8952 16.5423C47.102 17.3635 47.2131 20.005 47.242 21.328H6.75755Z" fill="white"/>
<path d="M18.6859 15.3275C19.664 15.3275 20.3975 14.5872 20.3975 13.595V6.73475C20.3975 5.7425 19.664 5 18.6859 5C17.7079 5 16.9744 5.7425 16.9744 6.73475V13.595C16.9744 14.5872 17.7079 15.3275 18.6859 15.3275Z" fill="white"/>
<path d="M35.3136 15.3275C36.2694 15.3275 37.0252 14.5872 37.0252 13.595V6.73475C37.0252 5.7425 36.2694 5 35.3136 5C34.3356 5 33.602 5.7425 33.602 6.73475V13.595C33.602 14.5872 34.3356 15.3275 35.3136 15.3275Z" fill="white"/>
</svg>
