<svg width="40" height="40" viewBox="0 0 40 40" fill="none" xmlns="http://www.w3.org/2000/svg">
<path d="M5 12.5184C4.23318 13.0079 3.60213 13.6827 3.16517 14.4806C2.7282 15.2785 2.49943 16.1737 2.5 17.0834V27.0834C2.5 31.9167 6.41667 35.8334 11.25 35.8334H26.25C28.1667 35.8334 29.8517 34.8367 30.815 33.3334H11.25C9.5924 33.3334 8.00269 32.6749 6.83058 31.5028C5.65848 30.3307 5 28.741 5 27.0834V12.5184ZM31.25 6.66675H12.0833C10.6998 6.66666 9.36862 7.196 8.36295 8.1462C7.35728 9.0964 6.75333 10.3954 6.675 11.7767L6.66667 12.0834V26.2501C6.66658 27.6336 7.19592 28.9648 8.14612 29.9705C9.09632 30.9761 10.3953 31.5801 11.7767 31.6584L12.0833 31.6667H31.25C32.6336 31.6668 33.9647 31.1375 34.9704 30.1873C35.9761 29.2371 36.58 27.9381 36.6583 26.5567L36.6667 26.2501V12.0834C36.6668 10.6999 36.1374 9.3687 35.1872 8.36303C34.237 7.35736 32.938 6.75341 31.5567 6.67508L31.25 6.66675ZM9.16667 14.8317L21.0833 21.1067C21.2368 21.1875 21.4054 21.2354 21.5785 21.2475C21.7515 21.2595 21.9251 21.2354 22.0883 21.1767L22.2483 21.1067L34.1667 14.8334V26.2501C34.1666 26.9823 33.8911 27.6878 33.3949 28.2263C32.8987 28.7648 32.2181 29.0969 31.4883 29.1567L31.25 29.1667H12.0833C11.3511 29.1667 10.6456 28.8912 10.1072 28.395C9.56866 27.8988 9.2365 27.2182 9.17667 26.4884L9.16667 26.2501V14.8317ZM12.0833 9.16675H31.25C31.982 9.16678 32.6872 9.44203 33.2256 9.93788C33.7641 10.4337 34.0964 11.1139 34.1567 11.8434L34.1633 12.0101L21.6667 18.5867L9.16667 12.0084C9.18623 11.2479 9.50213 10.5252 10.047 9.99433C10.5919 9.46347 11.3226 9.1665 12.0833 9.16675Z" fill="white"/>
</svg>
