<svg width="16" height="16" viewBox="0 0 16 16" fill="none" xmlns="http://www.w3.org/2000/svg">
<path fill-rule="evenodd" clip-rule="evenodd" d="M1.85625 6.13135V12.5588H14.1437V6.13135L8 9.18635L1.85625 6.13135Z" fill="#FCC21B"/>
<path fill-rule="evenodd" clip-rule="evenodd" d="M1.85625 3.44141V5.15016L8 8.20391L14.1437 5.15016V3.44141H1.85625Z" fill="#FCC21B"/>
<path d="M8.0025 4.8474C9.9525 4.8474 11.2663 6.1549 11.2788 8.10365C11.28 8.1199 11.28 8.1424 11.2813 8.16865C11.2825 8.32865 11.255 8.6549 11.07 8.97115C11.0538 9.00115 11.0375 9.03115 11.0175 9.0599C10.8138 9.3524 10.42 9.5424 10.0113 9.54365H10.0088C9.62125 9.54365 9.26625 9.3849 9.02875 9.10865C8.74875 9.4449 8.32 9.66365 7.77125 9.6649H7.76625C7.14875 9.6649 6.675 9.3949 6.40375 8.98365C6.2525 8.75365 6.165 8.47865 6.15 8.1824C6.14748 8.1533 6.14623 8.12411 6.14625 8.0949C6.14375 7.22615 6.76625 6.5199 7.765 6.5174H7.7675C8.0875 6.5174 8.36375 6.5949 8.59875 6.7224V6.63615C8.59875 6.59865 8.62875 6.5674 8.6675 6.5674L9.495 6.5649C9.5325 6.5649 9.56375 6.5949 9.56375 6.63365L9.5675 7.7374H9.5725C9.57625 7.85365 9.59875 8.02115 9.63875 8.1724C9.67 8.29365 9.71375 8.4049 9.7675 8.4699C9.83625 8.55115 9.945 8.5649 10.0063 8.5649H10.01C10.1163 8.5649 10.2 8.51865 10.2175 8.4999C10.2963 8.3874 10.3088 8.23115 10.3063 8.17115V8.16115L10.305 8.1224C10.3025 7.01115 9.6975 5.8249 8.00625 5.8249H7.9975C6.6425 5.8274 5.6975 6.7424 5.70125 8.0499C5.70125 8.0949 5.705 8.13865 5.7075 8.1824C5.7225 8.47365 5.785 8.7424 5.88875 8.98365C6.225 9.7674 7 10.2637 7.99875 10.2637H8.005C8.56375 10.2624 9.065 10.1087 9.455 9.8199L10.0375 10.6049C9.47875 11.0187 8.7775 11.2387 8.0075 11.2399H7.9975C6.44 11.2399 5.23375 10.3337 4.85125 8.98615C4.77875 8.73365 4.73875 8.4649 4.7275 8.1849C4.72625 8.14115 4.72125 8.0974 4.72125 8.0524C4.7175 6.20115 6.0925 4.8524 7.9925 4.84865C7.995 4.8474 7.99875 4.8474 8.0025 4.8474M7.765 8.8174H7.7675C8.195 8.81615 8.47 8.53615 8.50875 8.1749C8.5125 8.14615 8.51625 8.1174 8.51625 8.0874C8.515 7.6874 8.22625 7.36115 7.765 7.36115H7.7625C7.30125 7.3624 7.01375 7.6899 7.015 8.09115C7.015 8.12115 7.02 8.1499 7.02375 8.17865C7.06375 8.53865 7.33875 8.8174 7.765 8.8174M8.0025 4.18115H7.99C6.8975 4.18365 5.8975 4.57365 5.17625 5.28115C4.45 5.9924 4.0525 6.9774 4.05375 8.05365C4.05375 8.0949 4.05625 8.13615 4.05875 8.1774L4.06125 8.20865C4.075 8.5474 4.12375 8.86865 4.21 9.1699C4.68375 10.8337 6.17 11.9087 7.9975 11.9087C8.9225 11.9074 9.76 11.6424 10.4338 11.1424C10.5757 11.0371 10.67 10.8797 10.6961 10.7049C10.7221 10.53 10.6776 10.352 10.5725 10.2099L10.5238 10.1449C10.9513 10.0324 11.3275 9.78365 11.565 9.4424C11.595 9.39865 11.6213 9.35365 11.6463 9.30865C11.9113 8.8549 11.9488 8.39865 11.9475 8.16615C11.9475 8.13365 11.9463 8.1074 11.945 8.0874C11.9225 5.7849 10.3038 4.18115 8.0025 4.18115V4.18115Z" fill="#FCC21B"/>
<path fill-rule="evenodd" clip-rule="evenodd" d="M11.2788 8.10392C11.2663 6.15142 9.9475 4.84267 7.9925 4.84767C6.0925 4.85142 4.7175 6.20017 4.72125 8.05142C4.72125 8.09642 4.72625 8.14017 4.7275 8.18392C4.73875 8.46517 4.77875 8.73267 4.85125 8.98517C5.23625 10.3364 6.445 11.2427 8.0075 11.2389C8.77625 11.2377 9.47875 11.0177 10.0375 10.6039L9.455 9.81892C9.06625 10.1077 8.56375 10.2602 8.005 10.2627C7.00375 10.2652 6.22625 9.76767 5.885 8.98267C5.78125 8.74142 5.71875 8.47142 5.70375 8.18142C5.70125 8.13767 5.6975 8.09392 5.6975 8.04892C5.695 6.74142 6.63875 5.82767 7.99375 5.82392C9.69125 5.82017 10.2988 7.00892 10.3013 8.12142L10.3025 8.16017V8.17017C10.305 8.23017 10.2925 8.38642 10.2138 8.49892C10.1963 8.51767 10.1125 8.56392 10.0063 8.56392C9.94625 8.56392 9.83375 8.55142 9.76375 8.46892C9.70875 8.40392 9.66625 8.29142 9.635 8.17142C9.595 8.02017 9.57125 7.85267 9.56875 7.73642H9.56375L9.56 6.63267C9.56 6.59517 9.52875 6.56392 9.49125 6.56392L8.66375 6.56642C8.62625 6.56642 8.595 6.59767 8.595 6.63517V6.72142C8.36 6.59392 8.0825 6.51517 7.76125 6.51642C6.76375 6.51892 6.14125 7.22517 6.1425 8.09392C6.1425 8.12392 6.145 8.15267 6.14625 8.18142C6.16125 8.47892 6.24875 8.75267 6.4 8.98267C6.6725 9.39517 7.1475 9.66642 7.7675 9.66392C8.31625 9.66267 8.745 9.44392 9.025 9.10767C9.2625 9.38392 9.61875 9.54392 10.0075 9.54267C10.4163 9.54142 10.81 9.35267 11.0138 9.05892C11.0338 9.03017 11.05 9.00017 11.0663 8.97017C11.2513 8.65392 11.2788 8.32642 11.2775 8.16767C11.28 8.14267 11.2788 8.12017 11.2788 8.10392ZM8.50875 8.17517C8.47 8.53642 8.195 8.81642 7.7675 8.81767C7.34 8.81892 7.06375 8.53892 7.02375 8.17892C7.02 8.15017 7.015 8.12142 7.015 8.09142C7.01375 7.69017 7.3025 7.36267 7.7625 7.36142C8.225 7.36017 8.515 7.68642 8.51625 8.08767C8.51625 8.11767 8.51125 8.14642 8.50875 8.17517Z" fill="#ED6C30"/>
</svg>
