<svg width="16" height="16" viewBox="0 0 16 16" fill="none" xmlns="http://www.w3.org/2000/svg">
<path d="M0.805401 7.91023C0.805049 9.17052 1.13689 10.4011 1.76787 11.4858L0.745056 15.1917L4.5668 14.1973C5.62384 14.7683 6.80818 15.0675 8.01171 15.0676H8.01487C11.9879 15.0676 15.2221 11.8593 15.2238 7.91587C15.2246 6.005 14.4754 4.20814 13.1142 2.85628C11.7532 1.50453 9.94314 0.759707 8.01458 0.758835C4.04104 0.758835 0.8071 3.96697 0.805459 7.91023" fill="url(#paint0_linear_16_397)"/>
<path d="M0.548028 7.90791C0.547618 9.21355 0.891347 10.4881 1.54483 11.6116L0.48534 15.4504L4.44412 14.4203C5.53489 15.0105 6.76299 15.3217 8.01265 15.3221H8.01587C12.1315 15.3221 15.4818 11.9984 15.4836 7.91384C15.4843 5.9343 14.7081 4.07285 13.2983 2.67256C11.8883 1.27244 10.0135 0.500814 8.01587 0.5C3.89955 0.5 0.549727 3.82326 0.548087 7.90791H0.548028ZM2.90557 11.4181L2.75775 11.1853C2.13638 10.2048 1.80841 9.0718 1.80888 7.90837C1.81022 4.51331 4.59451 1.75116 8.01821 1.75116C9.67622 1.75186 11.2344 2.39326 12.4064 3.55698C13.5783 4.72081 14.2232 6.26791 14.2227 7.91337C14.2212 11.3084 11.4369 14.0709 8.01587 14.0709H8.01341C6.8995 14.0703 5.80702 13.7735 4.85428 13.2125L4.62755 13.0791L2.27833 13.6903L2.90557 11.4181V11.4181Z" fill="url(#paint1_linear_16_397)"/>
<path d="M6.14941 4.81093C6.00962 4.50262 5.86251 4.49639 5.72957 4.49099C5.62072 4.48634 5.49628 4.48669 5.37196 4.48669C5.24752 4.48669 5.04534 4.53314 4.87444 4.71831C4.70336 4.90366 4.22131 5.35157 4.22131 6.26256C4.22131 7.1736 4.88996 8.05401 4.98318 8.17767C5.0765 8.3011 6.27402 10.2304 8.1706 10.9726C9.74682 11.5894 10.0676 11.4667 10.4097 11.4358C10.7518 11.405 11.5137 10.988 11.6691 10.5556C11.8247 10.1233 11.8247 9.75273 11.778 9.67529C11.7314 9.59814 11.607 9.5518 11.4204 9.45924C11.2337 9.36663 10.3163 8.91866 10.1453 8.85686C9.97425 8.79512 9.84987 8.7643 9.72544 8.94971C9.601 9.13482 9.24367 9.5518 9.13476 9.67529C9.02597 9.79907 8.91705 9.81448 8.73051 9.72186C8.5438 9.62895 7.94287 9.43366 7.22993 8.80291C6.67522 8.31209 6.30074 7.70599 6.19188 7.52058C6.08303 7.33546 6.18022 7.23512 6.27379 7.14285C6.35763 7.05988 6.46044 6.92663 6.55383 6.81855C6.64687 6.71041 6.67792 6.63325 6.74014 6.50977C6.80242 6.38616 6.77125 6.27802 6.72467 6.18541C6.67792 6.09279 6.31533 5.17709 6.14941 4.81099" fill="white"/>
<defs>
<linearGradient id="paint0_linear_16_397" x1="7.98444" y1="15.1917" x2="7.98444" y2="0.758835" gradientUnits="userSpaceOnUse">
<stop stop-color="#1FAF38"/>
<stop offset="1" stop-color="#60D669"/>
</linearGradient>
<linearGradient id="paint1_linear_16_397" x1="7.98447" y1="15.4504" x2="7.98447" y2="0.5" gradientUnits="userSpaceOnUse">
<stop stop-color="#F9F9F9"/>
<stop offset="1" stop-color="white"/>
</linearGradient>
</defs>
</svg>
